<?xml version="1.0" standalone="no"?>
<!DOCTYPE svg PUBLIC "-//W3C//DTD SVG 20010904//EN"
 "http://www.w3.org/TR/2001/REC-SVG-20010904/DTD/svg10.dtd">
<svg version="1.0" xmlns="http://www.w3.org/2000/svg"
 width="256.000000pt" height="256.000000pt" viewBox="0 0 256.000000 256.000000"
 preserveAspectRatio="xMidYMid meet">
<metadata>
Created by potrace 1.14, written by Peter Selinger 2001-2017
</metadata>
<g transform="translate(0.000000,256.000000) scale(0.100000,-0.100000)"
fill="#000000" stroke="none">
<path d="M1593 2194 c-10 -7 -30 -14 -44 -14 -15 0 -29 -7 -33 -15 -3 -8 -17
-15 -31 -15 -16 0 -25 -6 -25 -15 0 -13 -24 -20 -52 -16 -4 0 -5 -6 -2 -14 4
-10 0 -15 -15 -15 -23 0 -29 -15 -8 -23 6 -3 0 -6 -15 -6 -23 -1 -28 -6 -28
-25 0 -14 -4 -28 -10 -31 -6 -4 -7 1 -3 11 4 12 3 15 -5 10 -7 -4 -12 -16 -12
-26 0 -10 -5 -22 -12 -26 -7 -5 -8 -2 -3 7 6 10 5 11 -3 4 -7 -6 -13 -23 -14
-37 -2 -18 -6 -24 -13 -18 -10 8 -15 -10 -18 -67 0 -7 -4 -13 -8 -13 -4 0 -10
6 -12 13 -3 6 -6 -13 -6 -45 -1 -54 -2 -56 -26 -53 -14 1 -25 -1 -25 -4 0 -3
-19 -5 -42 -4 -99 5 -126 5 -137 -1 -6 -4 -11 -4 -11 1 0 9 -83 8 -106 -1 -8
-3 -14 -2 -14 2 0 7 -49 7 -133 1 -21 -2 -41 -7 -44 -13 -4 -5 -1 -6 7 -1 9 5
11 4 6 -3 -4 -7 -15 -12 -25 -12 -15 0 -18 -8 -17 -45 1 -33 5 -45 16 -45 12
0 12 -2 2 -9 -25 -16 26 -20 271 -21 225 -1 241 -2 257 -20 11 -12 16 -34 15
-60 -1 -22 2 -40 7 -40 5 0 7 -4 4 -9 -3 -5 11 -13 32 -18 44 -12 82 1 82 28
0 10 4 21 10 24 6 3 7 -1 4 -12 -5 -15 -4 -15 7 1 9 15 9 21 1 24 -7 2 -12 8
-12 13 0 6 5 7 10 4 6 -3 10 1 10 10 0 11 -5 15 -14 12 -10 -4 -13 -1 -9 8 3
8 9 12 14 9 5 -3 9 2 9 11 0 14 20 16 165 15 92 -1 165 -6 165 -11 0 -5 -7 -9
-15 -9 -8 0 -15 -9 -15 -19 0 -11 -5 -23 -10 -26 -8 -5 -7 -11 0 -20 7 -8 9
-18 7 -23 -10 -15 10 -34 37 -35 15 -1 26 -8 27 -17 0 -10 2 -11 6 -2 2 6 10
12 17 12 7 0 23 9 36 20 12 11 26 17 31 14 5 -3 6 3 2 12 -4 12 -3 15 5 10 8
-4 16 3 22 19 5 14 14 23 20 20 5 -3 10 1 10 10 0 9 5 13 11 10 6 -4 13 2 16
14 3 12 11 21 19 21 7 0 16 5 20 12 5 7 3 8 -6 3 -9 -5 -11 -4 -6 3 4 7 13 12
20 12 10 0 14 14 13 45 0 38 -4 45 -20 45 -13 0 -17 5 -13 15 3 9 0 15 -10 15
-8 0 -17 7 -20 15 -4 8 -12 15 -20 15 -8 0 -13 6 -12 13 2 6 -2 11 -9 10 -6
-2 -15 6 -18 17 -4 11 -13 20 -20 20 -9 0 -12 6 -8 17 4 10 2 14 -5 9 -6 -3
-13 -2 -17 4 -4 6 -10 8 -15 5 -4 -3 -13 2 -20 10 -17 20 -64 20 -56 0 3 -8 2
-14 -2 -14 -22 4 -42 -2 -37 -11 3 -5 1 -19 -6 -31 -8 -15 -8 -19 0 -15 7 5
11 -2 11 -18 0 -14 4 -25 9 -24 5 2 11 -1 12 -7 3 -6 -26 -11 -71 -12 -41 -1
-86 -2 -100 -3 -14 -1 -42 0 -63 2 -21 2 -41 0 -43 -4 -3 -5 -14 -3 -25 2 -18
10 -19 20 -10 70 1 3 6 -2 11 -10 7 -11 10 -7 10 17 0 18 7 36 15 40 8 5 16
20 17 34 1 14 8 26 15 27 7 1 19 3 27 4 8 1 12 7 9 15 -3 7 2 13 11 13 9 0 16
7 16 15 0 8 9 15 20 15 11 0 20 7 20 15 0 11 12 15 43 16 23 1 45 1 49 0 4 0
5 6 2 14 -5 13 32 15 290 14 174 -1 293 -5 290 -10 -3 -5 -9 -7 -14 -4 -5 3
-11 1 -14 -4 -3 -4 2 -8 12 -8 62 0 82 -4 82 -17 0 -7 9 -16 21 -19 12 -3 18
-10 14 -16 -3 -6 1 -11 9 -11 9 0 16 -9 16 -20 0 -14 5 -18 17 -13 10 4 14 2
10 -4 -11 -18 11 -65 25 -57 8 5 7 0 -2 -11 -10 -12 -10 -16 -2 -11 10 6 13
-16 11 -113 -1 -72 -5 -124 -12 -128 -6 -3 -7 -1 -3 5 4 7 2 12 -3 12 -15 0
-14 -13 2 -29 10 -11 10 -13 0 -7 -13 7 -17 -4 -14 -32 1 -7 -2 -12 -6 -11
-20 3 -27 -2 -13 -11 10 -6 11 -10 3 -10 -7 0 -13 -7 -13 -15 0 -8 -5 -15 -11
-15 -5 0 -7 5 -3 12 4 7 3 8 -5 4 -6 -4 -9 -12 -6 -17 4 -5 1 -9 -4 -9 -6 0
-10 -6 -8 -12 1 -7 -4 -12 -10 -11 -7 2 -13 -4 -13 -12 0 -9 -13 -18 -31 -22
-22 -4 -27 -8 -17 -14 10 -7 10 -9 1 -10 -7 -1 -18 -2 -23 -3 -6 0 -14 -7 -18
-13 -5 -7 -27 -15 -50 -17 -23 -2 -49 -10 -58 -17 -11 -9 -18 -9 -26 -1 -7 7
-17 12 -22 12 -6 0 -4 -5 4 -10 12 -7 10 -9 -7 -7 -12 0 -19 5 -17 9 3 4 -6 8
-20 8 -14 0 -26 -4 -26 -10 0 -5 -8 -10 -17 -10 -15 0 -16 2 -3 10 13 8 12 10
-2 10 -10 0 -18 -4 -18 -10 0 -5 -5 -10 -11 -10 -5 0 -8 4 -5 8 3 5 -1 9 -9 9
-8 0 -12 -4 -9 -9 3 -4 0 -8 -5 -8 -6 0 -11 5 -11 10 0 6 -5 10 -11 10 -5 0
-7 -4 -4 -10 3 -5 1 -10 -4 -10 -6 0 -11 4 -11 9 0 5 -15 8 -34 8 -19 -1 -32
-5 -30 -9 3 -4 0 -8 -5 -8 -6 0 -11 5 -11 10 0 6 -9 10 -20 10 -11 0 -20 -4
-20 -10 0 -5 -8 -10 -17 -10 -15 0 -16 2 -3 10 13 8 12 10 -2 10 -10 0 -18 -4
-18 -10 0 -5 -5 -10 -11 -10 -5 0 -8 4 -5 8 2 4 -31 8 -75 8 -44 1 -74 -3 -67
-7 8 -5 5 -8 -9 -6 -12 0 -19 5 -17 9 3 4 0 8 -5 8 -6 0 -11 -4 -11 -10 0 -5
-8 -10 -17 -10 -15 0 -16 2 -3 10 13 8 12 10 -2 10 -10 0 -18 -4 -18 -10 0 -5
-5 -10 -11 -10 -5 0 -8 4 -5 8 3 5 -1 9 -9 9 -8 0 -12 -4 -9 -9 3 -4 0 -8 -5
-8 -6 0 -11 5 -11 10 0 6 -5 10 -11 10 -5 0 -7 -4 -4 -10 3 -5 1 -10 -4 -10
-6 0 -11 5 -11 10 0 6 -5 10 -11 10 -5 0 -7 -4 -4 -10 3 -5 1 -10 -4 -10 -6 0
-11 5 -11 10 0 6 -5 10 -11 10 -5 0 -7 -4 -4 -10 3 -5 1 -10 -4 -10 -6 0 -11
5 -11 10 0 6 -5 10 -11 10 -5 0 -7 -4 -4 -10 3 -5 1 -10 -4 -10 -6 0 -11 6
-11 13 0 8 -4 7 -10 -3 -6 -10 -10 -11 -10 -2 0 6 -5 12 -11 12 -5 0 -7 -4 -4
-10 3 -5 2 -10 -4 -10 -5 0 -12 6 -14 13 -4 10 -6 10 -6 0 -1 -7 -10 -13 -22
-13 -11 0 -18 4 -15 8 3 5 -1 9 -9 9 -8 0 -12 -4 -9 -9 3 -4 -2 -8 -11 -8 -9
0 -13 5 -10 11 4 6 -3 5 -15 -3 -18 -10 -24 -10 -27 0 -3 6 -9 12 -14 12 -6 0
-7 -4 -4 -10 3 -5 2 -10 -4 -10 -5 0 -12 6 -14 13 -4 9 -6 9 -6 0 -1 -7 -10
-13 -22 -13 -11 0 -18 4 -15 8 3 5 -1 9 -9 9 -8 0 -12 -4 -9 -9 3 -4 -2 -8
-11 -8 -9 0 -13 5 -10 11 4 6 -3 5 -15 -3 -18 -10 -24 -10 -27 0 -3 6 -9 12
-14 12 -6 0 -7 -4 -4 -10 3 -5 2 -10 -4 -10 -5 0 -12 6 -14 13 -4 10 -6 10 -6
0 -1 -7 -10 -13 -22 -13 -11 0 -18 4 -15 8 3 5 -1 9 -9 9 -8 0 -12 -4 -9 -9 3
-4 -2 -8 -11 -8 -9 0 -13 5 -10 11 4 6 -3 5 -15 -3 -18 -10 -24 -10 -27 0 -3
6 -9 12 -14 12 -6 0 -7 -4 -4 -10 3 -5 2 -10 -4 -10 -5 0 -12 6 -14 13 -4 10
-6 10 -6 0 -1 -7 -10 -13 -22 -13 -11 0 -18 4 -15 8 3 5 -1 9 -9 9 -8 0 -12
-4 -9 -9 3 -4 -2 -8 -11 -8 -9 0 -13 5 -10 11 4 6 -3 5 -15 -3 -18 -10 -24
-10 -27 0 -3 6 -9 12 -14 12 -6 0 -7 -4 -4 -10 3 -5 -1 -10 -10 -10 -9 0 -14
4 -11 8 3 5 -1 9 -9 9 -8 0 -12 -4 -9 -9 3 -4 -2 -8 -11 -8 -9 0 -14 4 -11 8
3 5 -1 9 -9 9 -8 0 -12 -4 -9 -9 3 -4 -2 -8 -11 -8 -9 0 -14 4 -11 8 2 4 -6 8
-19 8 -16 0 -21 -4 -17 -16 4 -11 0 -10 -17 4 -16 15 -20 16 -16 4 5 -11 0
-14 -22 -13 -15 1 -38 -4 -51 -12 -14 -9 -22 -10 -22 -3 0 7 -7 4 -16 -5 -9
-9 -23 -14 -30 -11 -8 3 -14 -1 -14 -10 0 -8 -4 -12 -10 -9 -5 3 -10 1 -10 -5
0 -6 -5 -8 -10 -5 -6 3 -13 -1 -16 -9 -3 -9 -15 -16 -25 -16 -11 0 -23 -10
-29 -24 -5 -13 -15 -28 -22 -32 -9 -5 -8 -2 2 12 14 18 14 18 -2 5 -10 -7 -18
-19 -18 -27 0 -7 -5 -16 -12 -20 -7 -5 -8 -3 -3 6 5 9 4 11 -3 6 -7 -4 -12
-16 -12 -27 0 -10 -5 -18 -12 -17 -6 2 -14 -6 -16 -17 -2 -11 -9 -24 -14 -30
-8 -7 -8 -5 -3 5 6 12 5 12 -5 3 -7 -6 -12 -23 -12 -37 0 -15 -5 -29 -11 -33
-6 -4 -7 -1 -2 8 5 8 4 10 0 6 -11 -9 -15 -31 -16 -75 -1 -17 -6 -35 -12 -39
-5 -3 -7 -1 -3 5 3 6 2 13 -3 16 -6 4 -9 -54 -8 -143 0 -124 3 -148 15 -144 9
4 13 0 12 -13 -4 -39 0 -64 12 -62 12 3 14 -2 17 -37 0 -8 8 -15 16 -15 8 0
15 -4 15 -10 0 -14 43 -56 54 -52 5 2 3 -5 -5 -14 -8 -11 -9 -15 -2 -11 7 5
21 -1 33 -13 11 -11 31 -21 44 -22 15 -1 22 -7 19 -15 -4 -9 5 -13 30 -13 20
0 38 -4 42 -9 3 -6 -4 -8 -15 -6 -11 2 -18 0 -15 -5 10 -15 702 -12 708 3 3 7
20 14 38 15 19 1 39 9 45 17 6 8 21 15 33 15 12 0 24 7 27 15 4 8 12 15 20 15
8 0 14 7 14 15 0 8 7 15 15 15 8 0 15 7 15 15 0 8 7 15 15 15 8 0 15 7 15 15
0 8 6 15 14 15 8 0 17 12 21 27 5 21 8 24 16 12 6 -10 9 -5 9 19 0 17 5 32 11
32 5 0 7 -5 3 -12 -4 -7 -3 -8 4 -4 7 4 12 23 12 42 0 19 5 34 11 34 5 0 7 -5
3 -12 -4 -6 -3 -8 3 -5 9 6 11 23 16 108 1 14 6 26 12 27 5 0 133 1 283 2 164
1 272 6 272 12 0 5 -6 6 -12 2 -7 -4 -9 -3 -5 1 11 13 38 15 31 3 -4 -7 -2 -8
4 -4 7 4 12 13 12 21 0 7 4 15 9 17 6 2 12 16 15 32 4 22 1 29 -14 33 -11 3
-16 11 -13 19 3 9 -2 14 -15 14 -12 0 -24 5 -27 10 -4 7 -12 7 -18 2 -7 -4
-120 -8 -252 -8 -235 1 -241 1 -265 24 -19 18 -21 25 -11 35 10 10 11 8 6 -5
-4 -10 -3 -18 1 -18 16 0 13 78 -2 84 -8 3 -14 15 -14 27 0 15 -4 19 -16 15
-9 -4 -13 -2 -8 5 4 8 -8 10 -40 7 -25 -3 -48 -7 -49 -9 -1 -2 -9 -13 -17 -23
-10 -13 -10 -17 -2 -12 7 4 12 1 12 -9 0 -8 -7 -18 -16 -22 -12 -4 -13 -8 -3
-14 7 -4 14 -19 15 -33 1 -24 -7 -31 -30 -27 -5 1 -6 -4 -3 -11 3 -10 -6 -13
-34 -13 -27 0 -38 4 -35 12 3 7 -1 10 -9 6 -8 -3 -13 -8 -11 -12 3 -4 -34 -7
-81 -6 -81 1 -86 2 -89 23 -4 23 11 31 19 10 5 -13 11 49 7 67 -1 6 -3 16 -3
23 0 7 -6 11 -14 8 -7 -3 -13 -1 -13 4 0 6 -7 10 -16 10 -8 0 -13 4 -10 8 3 5
-1 9 -9 9 -8 0 -12 -4 -9 -9 3 -4 -7 -8 -21 -8 -15 0 -24 -4 -20 -10 6 -9 -8
-14 -27 -11 -5 0 -8 -4 -8 -10 0 -5 -6 -7 -12 -3 -8 5 -8 1 2 -12 8 -10 10
-16 6 -12 -11 10 -38 -11 -30 -23 4 -8 -17 -14 -38 -10 -4 0 -5 -6 -2 -14 4
-10 0 -15 -10 -15 -10 0 -23 -15 -31 -32 -8 -18 -14 -26 -15 -18 0 13 -2 13
-9 1 -21 -33 -5 -87 37 -129 23 -23 47 -42 53 -42 5 0 7 -4 4 -10 -3 -5 1 -10
9 -10 8 0 18 -5 22 -12 5 -7 3 -8 -6 -3 -9 5 -11 4 -6 -3 4 -7 14 -12 23 -12
9 0 13 -6 9 -15 -4 -11 1 -15 19 -15 13 0 27 -5 31 -12 5 -7 2 -8 -7 -3 -8 5
-11 4 -6 -1 10 -11 78 -13 71 -2 -3 5 -10 5 -16 2 -7 -4 -8 -2 -4 5 4 6 11 9
15 6 13 -7 39 18 41 40 4 38 0 55 -13 55 -8 0 -14 7 -14 15 0 14 29 21 66 16
7 -2 11 2 7 7 -3 5 1 9 9 9 8 0 12 -4 9 -9 -3 -4 9 -8 25 -8 18 0 31 5 31 13
0 7 3 8 8 2 4 -6 20 -12 36 -13 21 -3 26 0 21 10 -6 10 -5 11 6 0 16 -14 43
-16 34 -2 -3 6 -1 10 5 10 7 0 10 -21 9 -60 -2 -49 -5 -58 -16 -49 -10 9 -13
5 -13 -20 0 -17 -5 -31 -11 -31 -5 0 -7 6 -3 13 4 7 3 9 -2 4 -9 -9 -10 -13
-13 -42 0 -8 -8 -15 -16 -15 -8 0 -15 -7 -15 -15 0 -8 -7 -15 -15 -15 -8 0
-15 -7 -15 -15 0 -8 -6 -15 -14 -15 -8 0 -16 -5 -18 -12 -4 -12 -26 -18 -66
-20 -19 0 -20 -2 -7 -12 19 -14 16 -14 -109 -16 -47 0 -86 -6 -95 -13 -11 -9
-13 -9 -8 0 6 9 -43 12 -200 12 -178 0 -213 3 -245 18 -21 10 -38 23 -38 29 0
7 -9 14 -21 17 -12 3 -18 10 -14 16 3 6 -1 11 -9 11 -9 0 -16 7 -16 15 0 8 -7
15 -15 15 -13 0 -22 45 -16 82 0 4 -6 5 -14 2 -8 -4 -15 -2 -15 4 0 6 6 13 13
15 9 4 9 6 0 6 -16 1 -19 161 -3 161 6 0 10 5 10 11 0 5 -6 7 -12 4 -7 -4 -5
0 5 8 10 9 18 18 18 21 -4 35 1 56 14 56 8 0 14 3 14 8 -4 24 3 42 16 42 8 0
15 4 15 10 0 16 33 50 48 50 12 0 12 3 2 15 -10 12 -8 14 8 10 11 -2 30 6 41
17 12 11 29 17 37 14 9 -4 14 2 15 17 0 20 1 20 8 3 7 -18 8 -18 14 -2 4 9 11
15 16 11 5 -3 12 -1 16 5 4 6 12 7 18 3 16 -10 48 -10 70 0 11 5 17 3 17 -5 0
-9 3 -9 11 2 7 10 12 11 15 4 4 -10 61 -10 72 1 3 2 13 0 23 -5 12 -7 20 -7
24 0 3 5 11 10 16 10 6 0 7 -6 3 -12 -5 -9 -2 -9 9 1 9 7 17 9 17 4 0 -10 58
-8 68 2 3 2 13 0 23 -5 12 -7 20 -7 24 0 3 5 11 10 16 10 6 0 8 -4 5 -8 -2 -4
9 -8 25 -7 19 0 29 5 29 15 0 12 2 13 9 1 5 -7 15 -11 22 -9 8 3 22 1 31 -3
10 -6 19 -5 23 1 3 5 11 10 16 10 6 0 7 -6 3 -12 -5 -9 -2 -9 9 1 9 7 17 9 17
4 0 -10 53 -8 69 1 4 3 13 1 21 -4 9 -5 19 -5 27 2 10 8 13 7 13 -3 0 -11 2
-11 10 1 6 9 13 11 18 5 12 -16 64 -15 58 1 -3 8 -1 14 4 14 6 0 10 -8 11 -17
0 -11 3 -13 6 -6 3 8 11 10 21 5 21 -10 73 -9 90 1 7 5 12 3 12 -3 0 -7 6 -8
19 0 24 12 34 13 27 2 -3 -5 5 -7 17 -6 12 1 27 3 32 3 6 1 3 6 -5 11 -13 8
-12 10 3 10 10 0 17 -7 17 -17 0 -14 2 -15 9 -4 5 7 11 9 14 4 9 -14 78 -8 88
8 7 11 9 11 9 -3 0 -15 4 -16 26 -8 31 12 37 12 30 2 -3 -5 5 -7 17 -6 12 1
27 3 32 3 6 1 3 6 -5 11 -13 8 -12 10 3 10 9 0 17 -8 18 -17 0 -10 3 -13 5 -6
4 8 13 9 30 3 23 -9 28 -6 25 15 -1 6 4 3 11 -6 10 -12 19 -14 36 -8 13 5 22
5 22 -2 0 -6 7 -6 19 1 24 12 34 13 27 1 -6 -8 53 -5 62 4 3 3 12 -1 20 -8 13
-10 15 -9 9 5 -4 12 -2 15 9 11 7 -3 14 -8 14 -12 0 -3 11 -6 24 -6 13 0 22 4
18 9 -3 5 2 7 11 3 10 -4 20 0 26 11 10 16 10 16 11 0 0 -10 4 -18 10 -18 5 0
7 6 4 14 -3 8 2 13 13 13 60 0 78 4 63 13 -12 8 -10 10 10 11 14 1 28 1 33 0
4 0 7 9 7 20 0 18 2 19 15 9 10 -9 15 -9 15 -1 0 6 7 11 16 11 8 0 13 4 10 9
-3 5 3 11 14 14 11 3 20 12 20 21 0 9 6 13 14 10 8 -3 16 3 19 16 3 12 10 19
16 15 7 -3 11 2 11 14 0 12 5 20 12 18 6 -1 14 7 16 18 2 11 10 25 18 31 8 6
15 23 16 37 1 14 6 23 10 21 5 -3 5 -11 2 -17 -4 -7 -3 -8 1 -4 10 9 14 27 16
80 1 21 6 40 11 43 4 3 5 -1 2 -9 -3 -8 -1 -18 4 -21 6 -3 10 60 11 159 2 143
0 165 -13 165 -11 0 -16 10 -16 30 0 20 -5 30 -15 30 -8 0 -15 4 -15 10 0 5 8
7 18 4 16 -5 16 -5 0 6 -10 6 -18 18 -18 25 0 8 -7 15 -15 15 -8 0 -15 9 -15
20 0 11 -6 19 -12 17 -7 -1 -12 4 -11 11 2 6 -6 12 -17 12 -11 0 -20 5 -20 11
0 5 5 7 12 3 7 -4 8 -3 4 4 -4 7 -14 12 -22 12 -8 0 -17 7 -20 15 -4 8 -12 15
-19 15 -7 0 -16 6 -18 13 -4 10 -6 10 -6 0 -1 -7 -6 -13 -12 -13 -6 0 -9 7 -5
15 5 15 -19 20 -79 17 -11 0 -14 2 -7 4 42 18 -21 23 -289 24 -229 0 -299 -2
-293 -11 5 -8 3 -9 -7 -3 -22 13 -36 13 -56 -2z m957 -304 c0 -5 -2 -10 -4
-10 -3 0 -8 5 -11 10 -3 6 -1 10 4 10 6 0 11 -4 11 -10z m-720 -540 c0 -5 -2
-10 -4 -10 -3 0 -8 5 -11 10 -3 6 -1 10 4 10 6 0 11 -4 11 -10z m180 0 c0 -5
-2 -10 -4 -10 -3 0 -8 5 -11 10 -3 6 -1 10 4 10 6 0 11 -4 11 -10z m-1055
-520 c-3 -5 -12 -10 -18 -10 -7 0 -6 4 3 10 19 12 23 12 15 0z m-785 -140 c0
-5 -2 -10 -4 -10 -3 0 -8 5 -11 10 -3 6 -1 10 4 10 6 0 11 -4 11 -10z"/>
<path d="M1765 1900 c3 -5 8 -10 11 -10 2 0 4 5 4 10 0 6 -5 10 -11 10 -5 0
-7 -4 -4 -10z"/>
<path d="M1193 1546 c1 -19 4 -32 7 -30 8 8 7 55 -1 60 -4 2 -7 -11 -6 -30z"/>
<path d="M1036 982 c-3 -5 1 -9 9 -9 8 0 12 4 9 9 -3 4 -7 8 -9 8 -2 0 -6 -4
-9 -8z"/>
<path d="M1386 981 c-3 -4 6 -7 19 -7 14 0 22 2 19 5 -8 8 -34 10 -38 2z"/>
<path d="M1466 982 c-3 -5 1 -9 9 -9 8 0 15 4 15 9 0 4 -4 8 -9 8 -6 0 -12 -4
-15 -8z"/>
<path d="M1526 982 c-3 -5 1 -9 9 -9 8 0 12 4 9 9 -3 4 -7 8 -9 8 -2 0 -6 -4
-9 -8z"/>
<path d="M1586 982 c-3 -5 1 -9 9 -9 8 0 15 4 15 9 0 4 -4 8 -9 8 -6 0 -12 -4
-15 -8z"/>
<path d="M1646 982 c-3 -5 1 -9 9 -9 8 0 12 4 9 9 -3 4 -7 8 -9 8 -2 0 -6 -4
-9 -8z"/>
<path d="M1706 982 c-3 -5 1 -9 9 -9 8 0 15 4 15 9 0 4 -4 8 -9 8 -6 0 -12 -4
-15 -8z"/>
<path d="M1766 982 c-3 -5 1 -9 9 -9 8 0 12 4 9 9 -3 4 -7 8 -9 8 -2 0 -6 -4
-9 -8z"/>
<path d="M1826 982 c-3 -5 1 -9 9 -9 8 0 15 4 15 9 0 4 -4 8 -9 8 -6 0 -12 -4
-15 -8z"/>
</g>
</svg>
